# xmcd
# 
# Track frame offsets:
#     150
#     26423
#     45551
#     81027
#     97408
#     119475
#     141180
#     161136
#     186124
# 
# Disc length: 2999
# 
# Revision: 0
# Processed by: cddbd v1.5.2PL0 Copyright (c) Steve Scherf et al.
# Submitted via: fre:ac v1.0.31
# 
DISCID=790bb509
DTITLE=Alex Fawcett Band - Now or Never
DYEAR=2019
DGENRE=Blues
TTITLE0=Thrill of the Chase
TTITLE1=The One For Me
TTITLE2=No Woman No More
TTITLE3=That Woman's No Good
TTITLE4=Minor's Blues
TTITLE5=The Real Hero
TTITLE6=Devil On Your Back
TTITLE7=Now Or Never
TTITLE8=Dark Mist
EXTD=Tagged By Paul Bratley
EXTT0=
EXTT1=
EXTT2=
EXTT3=
EXTT4=
EXTT5=
EXTT6=
EXTT7=
EXTT8=
PLAYORDER=
